<?xml version="1.0" encoding="UTF-8"?>
<svg id="Layer_3" data-name="Layer 3" xmlns="http://www.w3.org/2000/svg" viewBox="0 0 1085.07 1085.98">
  <defs>
    <style>
      .cls-1 {
        fill: #fff;
      }
    </style>
  </defs>
  <path id="Path_45" data-name="Path 45" class="cls-1" d="M346.42,190.91h392.23c86.22-.03,156.14,69.85,156.17,156.07h0v392.01c-.02,86.22-69.94,156.1-156.17,156.08h-392.23c-86.22.03-156.14-69.85-156.17-156.08,0,0,0,0,0-.01v-392c.02-86.22,69.94-156.1,156.17-156.08,0,0,0,0,0,0Z"/>
  <g id="Group_38" data-name="Group 38">
    <path id="Path_10" data-name="Path 10" d="M641.95,592.4l-127.94-120.12-.08-.08-30.01-28.2-.04-.04c-.04-.08-.07-.17-.08-.26-.35-.84-.64-1.69-.87-2.57-.04-.15-.08-.26-.11-.42-.27-.84-.49-1.7-.64-2.57-.12-.44-.21-.9-.26-1.36-.15-.7-.27-1.4-.34-2.11-.2-1.16-.34-2.33-.42-3.51-.77-9.19,2.53-18.26,9.02-24.8,8.03-8.77,19.33-13.83,31.22-13.97,10.75.06,21,4.6,28.26,12.53,7.61,7.55,11.82,17.86,11.67,28.58.01,2.14-.09,4.28-.3,6.42h58.62c.3-2.13.48-4.27.57-6.42-.16-54.33-43.64-98.61-97.96-99.74h-1.74c-27.92.04-54.52,11.9-73.2,32.65-17.97,18.43-27.01,43.78-24.76,69.42,1.31,23.53,11.28,45.74,27.97,62.36.91.91,1.85,1.85,2.83,2.76,1.66,1.55,3.44,3.1,5.36,4.64.68.57,1.36,1.13,2.08,1.7.91.68,1.85,1.4,2.79,2.11.02.02.05.03.08.04.04,0,.04.04.08.08l121.78,114,48.74,45.6,74.75,69.91v-83.65l-67.06-63.01Z"/>
    <path id="Path_11" data-name="Path 11" d="M583.4,636.53c-.19.79-.42,1.62-.68,2.42-.3,1.05-.64,2.08-1.02,3.1-1.29,3.81-2.92,7.5-4.87,11.02-.45.87-.94,1.7-1.47,2.53.04.04,0,.04-.04.08-.45.79-.94,1.59-1.47,2.38-.52.79-1.05,1.59-1.62,2.38s-1.13,1.59-1.77,2.38c-.64.91-1.36,1.77-2.11,2.64-1.47,1.74-3.02,3.44-4.64,5.1-29.51,29.47-77.33,29.43-106.79-.09-11.3-11.32-18.71-25.93-21.17-41.73-.09-.6-.17-1.19-.26-1.77-.12-.87-.24-1.75-.32-2.62-.23-2.53-.34-5.13-.34-7.74,0-4.59.4-9.18,1.17-13.7.42-2.46,1-4.9,1.74-7.29h-.23c3.21-9.17,8.09-17.67,14.39-25.07,2.57-3.55,6.04-7.89,10-12.5-19.67-7.01-38.32-16.6-55.45-28.54-14.16,19.71-23.87,42.26-28.43,66.1h-.03c-.06.3-.09.6-.11.91-.03.16-.03.31-.06.48-2.64,15.55-2.31,31.45.96,46.88.11.58.19,1.17.31,1.76.15.76.34,1.51.52,2.27,14.44,60.08,67.52,102.91,129.3,104.3h2.91c35.49-.26,69.36-14.88,93.88-40.54,1.59-1.62,3.1-3.25,4.57-4.91l.11-.11c1.43-1.62,2.83-3.25,4.19-4.91s2.72-3.4,4.04-5.13c.08-.12.16-.24.26-.34,1.17-1.62,2.34-3.25,3.44-4.91.1-.17.22-.33.34-.49,1.05-1.62,2.11-3.24,3.1-4.91,1.18-1.94,2.23-3.93,3.3-5.9l-45.41-44.37c-.07.28-.12.57-.2.85Z"/>
  </g>
</svg>