<?xml version="1.0" encoding="UTF-8"?>
<svg id="Layer_1" data-name="Layer 1" xmlns="http://www.w3.org/2000/svg" viewBox="0 0 1924.61 661.41">
  <defs>
    <style>
      .cls-1 {
        fill: #fff;
      }
    </style>
  </defs>
  <g id="Supervity_New_White_Logo" data-name="Supervity New White Logo">
    <path id="Path_1" data-name="Path 1" d="M662.17,378.68c6.4,4.67,13.52,8.25,21.08,10.61,7.14,2.33,14.6,3.55,22.12,3.62,6.79.23,13.53-1.33,19.53-4.53,5.03-2.62,8.1-7.91,7.89-13.58.21-4.59-2-8.96-5.82-11.51-4.49-2.97-9.36-5.32-14.49-6.99-5.78-1.98-12.03-4.01-18.75-6.08-6.64-2.02-12.95-4.98-18.75-8.79-5.87-3.89-10.81-9.01-14.49-15.01-3.88-6.21-5.82-14.48-5.82-24.83-.5-14.92,6.37-29.14,18.37-38.03,5.66-4.21,12.07-7.33,18.88-9.18,7.16-2,14.56-3,21.99-2.98,8.76,0,17.47,1.26,25.87,3.75,8.13,2.34,15.75,6.16,22.5,11.25l-10.09,31.3c-5.77-4.68-12.34-8.28-19.4-10.61-6.25-2.13-12.79-3.27-19.4-3.36-5.91-.2-11.76,1.18-16.95,4.01-4.39,2.37-7.05,7.04-6.85,12.03-.28,4.93,1.9,9.68,5.82,12.68,4.42,3.22,9.31,5.75,14.49,7.5,5.78,2.07,12.03,4.09,18.75,6.08,6.59,1.93,12.89,4.71,18.75,8.28,5.81,3.57,10.76,8.39,14.49,14.1,3.88,5.86,5.82,13.62,5.82,23.28.24,8.42-1.58,16.76-5.3,24.31-3.36,6.53-8.19,12.2-14.1,16.56-6.07,4.41-12.92,7.66-20.18,9.57-7.67,2.08-15.59,3.13-23.54,3.11-9.58.01-19.11-1.3-28.33-3.88-8.67-2.32-16.86-6.18-24.19-11.38l10.09-31.3Z"/>
    <path id="Path_2" data-name="Path 2" d="M910.15,422.12h-30.01l-3.62-14.23c-4.26,5.45-9.76,9.79-16.04,12.68-7.14,3.23-14.92,4.82-22.76,4.66-5.21,0-10.39-.75-15.39-2.2-5.07-1.45-9.75-4.02-13.71-7.5-4.35-3.95-7.72-8.87-9.83-14.36-2.5-6.03-3.75-13.71-3.75-23.02v-85.36h33.37v80.19c0,7.93,1.9,13.32,5.69,16.17,3.79,2.84,8.88,4.27,15.26,4.27,3.5.02,6.98-.46,10.35-1.42,3.26-.94,6.24-2.67,8.67-5.04,2.76-2.84,4.8-6.3,5.95-10.09,1.61-5.37,2.35-10.95,2.2-16.56v-67.52h33.63v129.33Z"/>
    <path id="Path_3" data-name="Path 3" d="M945.75,292.76h30.01l3.62,16.81c2.96-6.74,8.24-12.2,14.88-15.39,6.61-3.04,13.81-4.59,21.08-4.53,16.9,0,30.09,5.39,39.58,16.17,9.49,10.78,14.23,27.72,14.23,50.83.11,9.51-1.07,19-3.49,28.2-2.01,7.78-5.48,15.11-10.22,21.6-4.44,5.92-10.26,10.67-16.94,13.84-7.42,3.4-15.51,5.08-23.67,4.92-8.97,0-16.25-1.81-21.86-5.43-5.64-3.65-10.3-8.63-13.58-14.49v73.2h-33.63v-185.72ZM1035.25,357.43c.04-4.98-.31-9.95-1.04-14.88-.54-3.97-1.86-7.79-3.88-11.25-2.01-3.2-4.94-5.73-8.41-7.24-4.54-1.88-9.44-2.76-14.36-2.59-4.87-.19-9.73.69-14.23,2.59-3.46,1.59-6.41,4.09-8.54,7.24-2.19,3.41-3.64,7.25-4.27,11.25-1.55,9.85-1.55,19.89,0,29.75.63,4.01,2.08,7.84,4.27,11.25,2.13,3.15,5.08,5.66,8.54,7.24,9.17,3.45,19.28,3.45,28.46,0,3.43-1.56,6.35-4.07,8.41-7.24,2.1-3.43,3.47-7.26,4.01-11.25.73-4.92,1.07-9.89,1.03-14.87Z"/>
    <path id="Path_4" data-name="Path 4" d="M1206.14,348.15c0,2.24-.17,5.52-.52,9.83-.29,4.04-1.08,8.04-2.33,11.9h-76.83v1.3c-.03,6.16,2.79,11.98,7.63,15.78,5.08,4.31,13.15,6.47,24.19,6.46,3.46-.01,6.91-.23,10.35-.65,3.62-.43,7.16-.99,10.61-1.68s6.72-1.47,9.83-2.33c2.67-.7,5.27-1.65,7.76-2.85l5.17,31.82c-6.81,2.75-13.94,4.66-21.21,5.69-7.53,1.17-15.14,1.78-22.76,1.81-22.42,0-39.06-5.43-49.92-16.3-10.86-10.86-16.3-27.76-16.3-50.7-.06-9.02.99-18.01,3.1-26.77,1.85-7.89,5.28-15.33,10.09-21.86,4.78-6.3,11.04-11.33,18.24-14.61,7.5-3.53,16.68-5.3,27.55-5.3,36.89,0,55.34,19.49,55.35,58.46ZM1126.47,342.46h47.6v-1.3c0-7.07-2.07-12.54-6.21-16.43s-10.18-5.82-18.1-5.82c-7.59,0-13.36,1.85-17.33,5.56-3.97,3.71-5.95,9.27-5.95,16.68v1.3Z"/>
    <path id="Path_5" data-name="Path 5" d="M1239.17,292.79h30l3.62,14.23c2.44-5.44,6.39-10.07,11.38-13.33,5.31-2.87,11.3-4.26,17.33-4.01,2.56.01,5.11.23,7.64.65,2.84.49,5.58,1.4,8.15,2.71l-5.17,32.59c-2.42-1.62-5.15-2.73-8.02-3.23-2.81-.57-5.67-.87-8.54-.9-3.27-.06-6.52.51-9.57,1.68-2.83,1.17-5.29,3.1-7.11,5.56-2.23,3.13-3.77,6.7-4.53,10.47-1.14,5.49-1.67,11.08-1.56,16.68v66.22h-33.63v-129.33Z"/>
    <path id="Path_6" data-name="Path 6" d="M1398.94,381.25l33.37-88.46h35.44l-51.22,129.34h-35.18l-51.22-129.34h35.44l33.36,88.46Z"/>
    <path id="Path_7" data-name="Path 7" d="M1486.94,254c.08-11.11,9.07-20.1,20.18-20.18,2.72,0,5.41.57,7.89,1.69,2.41,1.05,4.6,2.54,6.47,4.39,1.82,1.82,3.26,3.97,4.27,6.34,2.07,4.97,2.07,10.55,0,15.52-1,2.37-2.45,4.52-4.27,6.34-1.87,1.85-4.06,3.34-6.47,4.4-2.48,1.12-5.17,1.69-7.89,1.68-11.11-.08-20.1-9.07-20.18-20.18h0ZM1490.3,292.81h33.63v129.33h-33.63v-129.33Z"/>
    <path id="Path_8" data-name="Path 8" d="M1557.04,259.17h33.63v33.63h43.97v31.82h-43.97v51.22c0,6.56,1.47,11.09,4.4,13.58,3.38,2.65,7.61,3.99,11.9,3.75,5.04.01,10.07-.51,15-1.55,4.19-.83,8.27-2.13,12.16-3.88l5.17,31.82c-10.34,3.83-21.31,5.67-32.34,5.43-6.72.07-13.42-.76-19.92-2.46-5.8-1.51-11.19-4.29-15.78-8.15-4.7-4.09-8.3-9.29-10.48-15.13-2.72-7.59-3.99-15.62-3.75-23.67v-116.4Z"/>
    <path id="Path_9" data-name="Path 9" d="M1725.17,378.64l31.56-85.88h35.18l-48.63,129.34c-3.12,8.28-6.92,16.28-11.38,23.93-4.05,7-9.1,13.36-15,18.88-5.7,5.26-12.32,9.42-19.53,12.28-7.96,3.05-16.44,4.54-24.96,4.4l-7.5-31.3c8.01-.23,15.87-2.22,23.02-5.82,4.46-2.27,8.56-5.19,12.16-8.67,3.96-3.87,7.05-8.55,9.05-13.71l-54.83-129.33h35.69l35.18,85.87Z"/>
    <path id="Path_45" data-name="Path 45" d="M229.7,112.01h243.63c53.56-.02,96.99,43.39,97,96.94h0v243.5c-.02,53.56-43.44,96.96-97,96.95h-243.63c-53.56.02-96.99-43.39-97-96.95,0,0,0,0,0,0v-243.49c.02-53.56,43.44-96.96,97-96.95,0,0,0,0,0,0Z"/>
    <g id="Group_38" data-name="Group 38">
      <path id="Path_10" data-name="Path 10" class="cls-1" d="M413.27,361.4l-79.47-74.61-.05-.05-18.64-17.52-.02-.02c-.03-.05-.04-.11-.05-.16-.21-.52-.4-1.05-.54-1.59-.02-.09-.05-.16-.07-.26-.17-.52-.3-1.05-.4-1.59-.08-.28-.13-.56-.16-.84-.1-.43-.17-.87-.21-1.31-.12-.72-.21-1.45-.26-2.18-.48-5.71,1.57-11.34,5.6-15.41,4.99-5.45,12.01-8.59,19.39-8.68,6.68.04,13.04,2.86,17.56,7.78,4.73,4.69,7.34,11.09,7.25,17.75,0,1.33-.05,2.66-.19,3.99h36.41c.18-1.32.3-2.65.35-3.99-.1-33.75-27.11-61.25-60.85-61.95h-1.08c-17.34.02-33.86,7.39-45.47,20.28-11.16,11.45-16.78,27.19-15.38,43.12.82,14.61,7,28.41,17.37,38.74.56.56,1.15,1.15,1.76,1.71,1.03.96,2.13,1.92,3.33,2.88.42.35.84.7,1.29,1.06.56.42,1.15.87,1.73,1.31.01.01.03.02.05.02.02,0,.02.02.05.05l75.65,70.81,30.27,28.33,46.43,43.43v-51.96l-41.66-39.14Z"/>
      <path id="Path_11" data-name="Path 11" class="cls-1" d="M376.9,388.81c-.12.49-.26,1.01-.42,1.5-.19.65-.4,1.29-.63,1.92-.8,2.37-1.81,4.66-3.02,6.85-.28.54-.59,1.06-.92,1.57.02.02,0,.02-.02.05-.28.49-.59.98-.92,1.48-.33.49-.65.98-1.01,1.48s-.7.98-1.1,1.48c-.4.56-.84,1.1-1.31,1.64-.91,1.08-1.88,2.14-2.88,3.17-18.33,18.3-48.03,18.28-66.33-.05-7.02-7.03-11.62-16.11-13.15-25.92-.05-.37-.11-.74-.16-1.1-.07-.54-.15-1.08-.2-1.63-.14-1.57-.21-3.19-.21-4.81,0-2.85.25-5.7.73-8.51.26-1.53.62-3.04,1.08-4.53h-.14c1.99-5.7,5.03-10.98,8.94-15.57,1.59-2.2,3.75-4.9,6.21-7.76-12.22-4.35-23.8-10.31-34.45-17.73-8.8,12.24-14.82,26.25-17.66,41.06h-.02c-.03.19-.06.37-.07.56-.02.1-.02.2-.04.3-1.64,9.66-1.44,19.54.59,29.12.07.36.12.73.2,1.09.09.47.21.94.33,1.41,8.97,37.32,41.94,63.92,80.31,64.79h1.81c22.04-.16,43.08-9.25,58.31-25.18.98-1.01,1.92-2.02,2.84-3.05l.07-.07c.89-1.01,1.76-2.02,2.6-3.05s1.69-2.11,2.51-3.19c.05-.08.1-.15.16-.21.73-1.01,1.45-2.02,2.13-3.05.06-.11.14-.21.21-.31.65-1.01,1.31-2.02,1.92-3.05.73-1.2,1.39-2.44,2.05-3.66l-28.21-27.56c-.04.17-.07.35-.12.53Z"/>
    </g>
  </g>
</svg>